<svg xmlns="http://www.w3.org/2000/svg" width="96" height="150" viewBox="0 0 96 150">
  <g fill="none" stroke="#5C8C6B" stroke-width="3" stroke-linecap="round">
    <path d="M48 4 L48 34"/>
    <path d="M48 12 C 30 16, 16 30, 14 48 C 26 44, 38 34, 48 20" fill="#8FBF9B" stroke="#5C8C6B"/>
    <path d="M48 20 C 66 24, 80 38, 82 56 C 70 52, 58 42, 48 28" fill="#7FB48D" stroke="#5C8C6B"/>
    <path d="M48 30 C 34 36, 24 50, 24 66 C 34 62, 44 52, 48 40" fill="#9BCBA6" stroke="#5C8C6B"/>
    <path d="M48 40 C 60 46, 70 58, 70 74 C 60 70, 52 60, 48 48" fill="#8FBF9B" stroke="#5C8C6B"/>
  </g>
  <g>
    <path d="M28 34 h40 l-4 34 h-32 z" fill="#D8A47F"/>
    <rect x="24" y="26" width="48" height="10" rx="3" fill="#C48F63"/>
  </g>
</svg>
